<svg width="16" height="16" viewBox="0 0 16 16" fill="none" xmlns="http://www.w3.org/2000/svg">
<path d="M0.86908 4.40688C1.12766 3.89947 1.43472 3.42378 1.80643 2.9798C3.11548 1.41002 4.79624 0.42693 6.8487 0.109803C9.36984 -0.27075 11.6162 0.331792 13.5394 2.01257C13.5879 2.06014 13.6041 2.07599 13.5556 2.13942C12.8283 2.8371 12.1172 3.55063 11.39 4.26417C11.3415 4.31174 11.3092 4.3276 11.2445 4.26417C10.1617 3.31279 8.86885 2.94809 7.44667 3.17008C5.55581 3.48721 4.29524 4.59716 3.58415 6.3255C3.56799 6.35721 3.55183 6.40478 3.53567 6.43649C3.50335 6.42064 3.47102 6.38892 3.45486 6.37307C2.79226 5.88152 2.14581 5.37412 1.4832 4.88257C1.27311 4.72401 1.07917 4.56544 0.86908 4.40688Z" fill="#DD4436"/>
<path d="M13.5556 14.0633C13.2162 14.3805 12.8445 14.65 12.4566 14.8879C11.4708 15.4746 10.4042 15.8075 9.25671 15.9344C8.23856 16.0454 7.23657 16.0295 6.25074 15.7758C3.84273 15.1891 2.065 13.7938 0.901402 11.6531C0.885241 11.6373 0.885241 11.6056 0.86908 11.5897C0.885241 11.5738 0.917563 11.558 0.933724 11.5263C1.51553 11.0823 2.08117 10.6542 2.66297 10.2102C2.95387 9.98819 3.24477 9.76619 3.53567 9.56006C3.7296 10.0833 3.98818 10.5749 4.34373 11.0189C5.21643 12.0971 6.34771 12.7314 7.73757 12.8582C8.86884 12.9534 9.95164 12.7472 10.9213 12.1288C10.9375 12.113 10.9536 12.113 10.9698 12.113C11.5031 12.5252 12.0364 12.9217 12.5697 13.3339C12.893 13.5718 13.2162 13.8255 13.5556 14.0633Z" fill="#39A153"/>
<path d="M13.5561 14.0636C13.249 13.8733 12.845 13.572 12.5218 13.3183C11.9884 12.906 11.439 12.5413 10.9056 12.1291C11.2127 11.9071 11.5521 11.6217 11.7945 11.3362C12.1985 10.8605 12.4571 10.3056 12.5864 9.70301C12.6026 9.60787 12.5702 9.60787 12.4894 9.60787C11.0834 9.60787 9.69356 9.60787 8.28754 9.60787C8.14209 9.60787 8.15825 9.62373 8.15825 9.48102C8.15825 8.51377 8.15825 7.54652 8.15825 6.59513C8.15825 6.49999 8.17441 6.48413 8.27138 6.48413C10.7602 6.48413 13.249 6.48413 15.7378 6.48413C15.8186 6.48413 15.851 6.51584 15.8671 6.59513C15.9641 7.18182 16.0126 7.75265 15.9964 8.33935C15.9641 9.70301 15.6893 10.9874 15.0267 12.2083C14.655 12.906 14.1702 13.5086 13.5884 14.0477C13.5722 14.0636 13.5561 14.0636 13.5561 14.0636Z" fill="#487ABE"/>
<path d="M3.53693 9.56034C3.24603 9.78233 2.95513 10.0043 2.66422 10.2105C2.08242 10.6544 1.51678 11.0826 0.934983 11.5265C0.918821 11.5424 0.886499 11.5583 0.870338 11.59C0.644082 11.1777 0.466309 10.7337 0.33702 10.2739C0.159248 9.68719 0.0461198 9.08464 0.0137975 8.46624C-0.0670082 7.07086 0.207731 5.73892 0.821855 4.4704C0.838016 4.43868 0.854177 4.42283 0.870338 4.39111C1.08043 4.54968 1.27437 4.70824 1.48446 4.86681C2.14707 5.37422 2.79351 5.86577 3.45612 6.35732C3.48844 6.37318 3.52077 6.40489 3.53693 6.42075C3.4238 6.76959 3.34299 7.11843 3.31067 7.48313C3.24603 8.14911 3.31067 8.81508 3.52076 9.44934C3.52076 9.49691 3.53693 9.52862 3.53693 9.56034Z" fill="#F0B71B"/>
</svg>
