<svg width="16" height="16" viewBox="0 0 16 16" fill="none" xmlns="http://www.w3.org/2000/svg">
<path d="M7.59566 0C10.3541 0.0570908 12.5243 0.799271 14.2631 2.71181C15.4005 3.95354 15.9888 5.46644 15.8842 7.23626C15.8058 8.56362 15.309 9.71971 14.5115 10.7045C13.2434 12.2888 11.6092 13.1309 9.75277 13.5305C8.74612 13.7446 7.72639 13.7446 6.70666 13.6304C6.589 13.6162 6.43212 13.659 6.32753 13.7446C5.37317 14.444 4.41882 15.1433 3.46446 15.857C3.41216 15.8998 3.35987 15.9569 3.30757 15.9711C3.21606 15.9854 3.0984 16.0282 3.03303 15.9711C2.96767 15.9283 2.94152 15.7713 2.95459 15.6857C3.11147 15.0149 3.26835 14.3441 3.43831 13.6732C3.50368 13.4021 3.55597 13.1309 3.63441 12.8597C3.6867 12.7027 3.64748 12.6313 3.51675 12.5457C2.47088 11.932 1.56881 11.1184 0.902066 10.0194C0.313762 9.06316 0 8.00698 0 6.86517C0 5.45217 0.45757 4.21045 1.29427 3.12572C2.44473 1.61281 3.96125 0.727907 5.70001 0.299727C6.41905 0.128454 7.17731 0.0570908 7.59566 0Z" fill="#3B1C1C"/>
</svg>
