<svg width="24" height="24" viewBox="0 0 24 24" fill="none" xmlns="http://www.w3.org/2000/svg">
<path d="M18.5882 15.2941L16.7059 13.4118M19 8V7.5C19 6.39543 18.1046 5.5 17 5.5H15M9 20H7C5.89543 20 5 19.1046 5 18V7.5C5 6.39543 5.89543 5.5 7 5.5H9M9 5.5V7H15V5.5M9 5.5V4H15V5.5M12 20V18.1176L18.1176 12L20 13.8824L13.8824 20H12Z" stroke="#050953" stroke-width="1.5" stroke-linecap="round" stroke-linejoin="round"/>
<path d="M8 11.5L15 11.5M8 14.5L12 14.5" stroke="#050953" stroke-width="1.5" stroke-linecap="round" stroke-linejoin="round"/>
</svg>
